<?xml version="1.0" encoding="utf-8"?>
<!-- Generator: Adobe Illustrator 23.0.1, SVG Export Plug-In . SVG Version: 6.00 Build 0)  -->
<svg version="1.1" xmlns="http://www.w3.org/2000/svg" xmlns:xlink="http://www.w3.org/1999/xlink" x="0px" y="0px"
	 viewBox="0 0 1599 246.5" style="enable-background:new 0 0 1599 246.5;" xml:space="preserve">
<g id="RED">
</g>
<g id="BLACK">
	<g>
		<path d="M198.2,64.62c2.79-8.01,4.18-15.68,4.18-22.3c0-26.49-23.35-41.82-59.59-41.82c-56.1,0-99.67,39.38-99.67,87.82
			c0,17.77,9.41,30.32,21.61,40.07l27.88,21.96c6.27,4.88,8.36,10.8,8.36,16.03c0,14.29-10.45,31.71-25.44,31.71
			c-8.36,0-12.89-3.83-12.89-10.8c0-7.67,4.18-18.47,8.71-30.67h-57.5C8.27,170.56,2,186.24,2,199.48
			c0,25.79,21.61,44.95,62.03,44.95c57.85,0,100.71-41.12,100.71-97.92c0-11.85-5.23-26.14-19.86-37.29l-29.62-22.65
			c-5.23-4.18-8.36-9.41-8.36-16.03c0-12.2,8.71-25.79,23.35-25.79c6.97,0,11.85,3.14,11.85,9.41c0,5.23-1.74,10.8-6.62,25.79h57.15
			L198.2,64.62z M307.27,73.33l-36.24,99.32c-6.97,19.17-15.68,27.53-27.18,27.53c-9.76,0-15.68-6.27-8.02-27.53l36.24-99.32
			c7.32-20.56,16.73-27.18,26.48-27.18C308.67,46.15,314.24,54.17,307.27,73.33 M363.03,83.09c18.82-52.27-7.32-81.54-54.36-81.54
			c-46.7,0-81.2,29.27-100.02,81.54l-29.27,80.15c-19.17,52.27,4.88,81.54,51.57,81.54c50.88,0,83.99-26.48,103.5-81.54
			L363.03,83.09z M507.3,175.44L569.33,5.73h-57.85l-61.33,167.62c-5.92,16.38-13.59,22.65-26.48,22.65
			c-9.06,0-15.33-3.83-15.33-10.8c0-3.49,1.05-7.32,2.79-11.85L472.45,5.73h-58.2l-62.03,169.71c-3.83,10.11-5.58,18.82-5.58,26.83
			c0,28.58,25.79,42.51,65.86,42.51C462.69,244.79,489.87,223.18,507.3,175.44 M667.6,238.86L752.63,5.73h-50.18l-30.67,41.12h15.68
			l-28.58,77.36h-2.09L651.22,5.73h-53.67l-30.67,41.12h15.68l-70.04,192.01h51.58l43.21-120.58h2.09l9.41,120.58H667.6z
			 M851.25,61.49c0,7.32-2.44,14.64-5.58,23.7l-27.88,75.97c-8.71,24.05-19.17,36.59-38.33,36.59h-11.5l55.06-150.89h9.06
			C843.23,46.85,851.25,52.77,851.25,61.49 M902.82,92.85c6.62-18.82,10.46-33.45,10.46-42.86c0-25.44-27.88-44.26-62.38-44.26
			h-71.09l-85.03,233.13h70.74c59.24,0,91.3-17.77,115-83.98L902.82,92.85z M1028.63,59.04c0,17.08-15.33,42.86-35.2,42.86h-14.29
			l20.91-57.85h12.89C1024.1,44.06,1028.63,49.29,1028.63,59.04 M966.25,137.1h14.29c11.15,0,15.68,7.32,15.68,15.68
			c0,21.95-13.94,47.39-36.59,47.39h-16.38L966.25,137.1z M1089.26,54.17c0-25.79-17.42-48.44-60.64-48.44l-72.48-0.35
			l-85.03,233.48h82.94c57.85,0,101.76-32.41,101.76-86.77c0-15.68-7.67-28.23-20.56-36.24l0.35-1.74
			C1065.22,105.74,1089.26,82.39,1089.26,54.17 M1196.6,73.33l-36.24,99.32c-6.97,19.17-15.68,27.53-27.18,27.53
			c-9.76,0-15.68-6.27-8.02-27.53l36.24-99.32c7.32-20.56,16.73-27.18,26.48-27.18C1197.99,46.15,1203.57,54.17,1196.6,73.33
			 M1252.35,83.09c18.82-52.27-7.32-81.54-54.36-81.54c-46.7,0-81.2,29.27-100.01,81.54l-29.27,80.15
			c-19.17,52.27,4.88,81.54,51.58,81.54c50.88,0,83.98-26.48,103.5-81.54L1252.35,83.09z M1369.07,121.77l95.48-116.04h-65.86
			l-67.61,86.08h-1.74l31.36-86.08h-58.2l-85.03,233.13h58.2l37.98-104.54h1.74l2.65,104.54h62.38L1369.07,121.77z M1598.31,42.32
			c0-26.49-23.35-41.82-59.59-41.82c-56.1,0-99.67,39.38-99.67,87.82c0,17.77,9.41,30.32,21.61,40.07l27.88,21.96
			c6.27,4.88,8.36,10.8,8.36,16.03c0,14.29-10.45,31.71-25.44,31.71c-8.36,0-12.89-3.83-12.89-10.8c0-7.67,4.18-18.47,8.71-30.67
			h-57.5c-5.58,13.94-11.85,29.62-11.85,42.86c0,25.79,21.61,44.95,62.03,44.95c57.85,0,100.71-41.12,100.71-97.92
			c0-11.85-5.23-26.14-19.86-37.29l-29.62-22.65c-5.23-4.18-8.36-9.41-8.36-16.03c0-12.2,8.71-25.79,23.35-25.79
			c6.97,0,11.85,3.14,11.85,9.41c0,5.23-1.74,10.8-6.62,25.79h57.15l5.58-15.33C1596.92,56.61,1598.31,48.94,1598.31,42.32"/>
	</g>
</g>
<g id="WHITE">
</g>
<g id="TURQ">
</g>
</svg>
